<svg width="24" height="23" viewBox="0 0 24 23" fill="none" xmlns="http://www.w3.org/2000/svg">
<path d="M12 0.5L16.226 6.683L23.413 8.792L18.838 14.722L19.053 22.208L12 19.69L4.947 22.208L5.162 14.722L0.587 8.792L7.774 6.683L12 0.5ZM12 4.044L9.022 8.402L3.957 9.887L7.182 14.065L7.029 19.34L12 17.566L16.97 19.34L16.818 14.065L20.042 9.887L14.978 8.402L12 4.044ZM10 12C10 12.5304 10.2107 13.0391 10.5858 13.4142C10.9609 13.7893 11.4696 14 12 14C12.5304 14 13.0391 13.7893 13.4142 13.4142C13.7893 13.0391 14 12.5304 14 12H16C16 13.0609 15.5786 14.0783 14.8284 14.8284C14.0783 15.5786 13.0609 16 12 16C10.9391 16 9.92172 15.5786 9.17157 14.8284C8.42143 14.0783 8 13.0609 8 12H10Z" fill="#36CEAA"/>
</svg>
